HIERARCHY
ROOT SpineBase
{
  OFFSET 0.000000 0.000000 0.000000
  CHANNELS 6 Xposition Yposition Zposition Zrotation Xrotation Yrotation
  JOINT SpineMid
  {
    OFFSET 0.000000 30.403298 0.000000
    CHANNELS 3 Zrotation Xrotation Yrotation
    JOINT SpineShoulder
    {
      OFFSET 0.043374 22.591956 -0.709430
      CHANNELS 3 Zrotation Xrotation Yrotation
      JOINT Neck
      {
        OFFSET 0.038158 7.502070 -0.533962
        CHANNELS 3 Zrotation Xrotation Yrotation
        JOINT Head
        {
          OFFSET -5.586090 12.722967 -1.460820
          CHANNELS 3 Zrotation Xrotation Yrotation
          End Site
          {
            OFFSET 0 0 0
          }
        }
      }
      JOINT ShoulderLeft
      {
        OFFSET -14.783125 -5.201157 6.623305
        CHANNELS 3 Zrotation Xrotation Yrotation
        JOINT ElbowLeft
        {
          OFFSET 0.184523 -27.523269 2.989614
          CHANNELS 3 Zrotation Xrotation Yrotation
          JOINT WristLeft
          {
            OFFSET 9.877691 4.009227 -19.924230
            CHANNELS 3 Zrotation Xrotation Yrotation
            JOINT HandLeft
            {
              OFFSET 4.984794 1.197438 -1.322534
              CHANNELS 3 Zrotation Xrotation Yrotation
              JOINT HandTipLeft
              {
                OFFSET 4.349372 1.922015 -1.839494
                CHANNELS 3 Zrotation Xrotation Yrotation
                End Site
                {
                  OFFSET 0 0 0
                }
              }
              JOINT ThumbLeft
              {
                OFFSET -0.869004 6.600988 -0.749841
                CHANNELS 3 Zrotation Xrotation Yrotation
                End Site
                {
                  OFFSET 0 0 0
                }
              }
            }
          }
        }
      }
      JOINT ShoulderRight
      {
        OFFSET 14.122724 -1.795358 -8.934266
        CHANNELS 3 Zrotation Xrotation Yrotation
        JOINT ElbowRight
        {
          OFFSET 7.631174 -24.188028 -1.232869
          CHANNELS 3 Zrotation Xrotation Yrotation
          JOINT WristRight
          {
            OFFSET -2.082957 -20.704166 -5.330096
            CHANNELS 3 Zrotation Xrotation Yrotation
            JOINT HandRight
            {
              OFFSET -2.044182 -6.480862 -0.481952
              CHANNELS 3 Zrotation Xrotation Yrotation
              JOINT HandTipRight
              {
                OFFSET 0.043948 -6.694699 0.262239
                CHANNELS 3 Zrotation Xrotation Yrotation
                End Site
                {
                  OFFSET 0 0 0
                }
              }
              JOINT ThumbRight
              {
                OFFSET 2.889517 -0.157977 -0.613377
                CHANNELS 3 Zrotation Xrotation Yrotation
                End Site
                {
                  OFFSET 0 0 0
                }
              }
            }
          }
        }
      }
    }
  }
  JOINT HipLeft
  {
    OFFSET -6.022768 0.228081 -0.375777
    CHANNELS 3 Zrotation Xrotation Yrotation
    JOINT KneeLeft
    {
      OFFSET 3.117273 -28.924178 5.166590
      CHANNELS 3 Zrotation Xrotation Yrotation
      JOINT AnkleLeft
      {
        OFFSET 10.273401 -29.539322 3.278342
        CHANNELS 3 Zrotation Xrotation Yrotation
        JOINT FootLeft
        {
          OFFSET -4.026634 -3.758623 -11.903275
          CHANNELS 3 Zrotation Xrotation Yrotation
          End Site
          {
            OFFSET 0 0 0
          }
        }
      }
    }
  }
  JOINT HipRight
  {
    OFFSET 6.767685 1.649253 -6.040218
    CHANNELS 3 Zrotation Xrotation Yrotation
    JOINT KneeRight
    {
      OFFSET 10.045269 -28.268059 2.051686
      CHANNELS 3 Zrotation Xrotation Yrotation
      JOINT AnkleRight
      {
        OFFSET 5.949322 -30.573876 4.434644
        CHANNELS 3 Zrotation Xrotation Yrotation
        JOINT FootRight
        {
          OFFSET -2.997348 -7.278072 -5.433121
          CHANNELS 3 Zrotation Xrotation Yrotation
          End Site
          {
            OFFSET 0 0 0
          }
        }
      }
    }
  }
}
MOTION
Frames: 14
Frame Time: 0.033333
-41.266043 64.550374 349.593896 -0.000000 0.000000 23.886864 -0.000000 0.000000 -23.886864 -0.000000 0.000000 0.000000 -0.000000 0.000000 0.000000 0.000000 0.000000 0.000000 -0.000000 0.000000 0.000000 -0.000000 0.000000 0.000000 -0.000000 0.000000 0.000000 -0.000000 0.000000 0.000000 0.000000 0.000000 0.000000 0.000000 0.000000 0.000000 -0.000000 0.000000 0.000000 -0.000000 0.000000 0.000000 -0.000000 0.000000 0.000000 -0.000000 0.000000 0.000000 0.000000 0.000000 0.000000 0.000000 0.000000 0.000000 -0.000000 0.000000 -23.886864 -0.000000 0.000000 0.000000 -0.000000 0.000000 0.000000 0.000000 0.000000 0.000000 -0.000000 0.000000 -23.886864 -0.000000 0.000000 0.000000 -0.000000 0.000000 0.000000 0.000000 0.000000 0.000000
-41.237709 64.579232 349.533752 0.055053 0.071989 23.903137 -0.079500 -0.043508 -23.903202 -0.000000 0.000000 0.000000 -0.000000 0.000000 0.000000 0.000000 0.000000 0.000000 -0.000000 0.000000 0.000000 -0.000000 0.000000 0.000000 -0.455140 -0.314027 0.787896 6.260422 2.958838 -1.747299 0.000000 0.000000 0.000000 0.000000 0.000000 0.000000 -0.000000 0.000000 0.000000 -0.000000 0.000000 0.000000 -0.000000 0.000000 0.000000 -1.205555 0.323957 -0.041697 0.000000 0.000000 0.000000 0.000000 0.000000 0.000000 -0.079500 -0.043508 -23.903202 -0.000000 0.000000 0.000000 -0.000000 0.000000 0.000000 0.000000 0.000000 0.000000 0.745161 0.298275 -23.630992 -1.117045 -1.263531 -0.478776 1.227266 0.546516 -0.333664 0.000000 0.000000 0.000000
-41.226558 64.602329 349.491952 0.085673 0.115028 23.918829 -0.124953 -0.070414 -23.918991 -0.000000 0.000000 0.000000 -0.000000 0.000000 0.000000 0.000000 0.000000 0.000000 -0.000000 0.000000 0.000000 -0.000000 0.000000 0.000000 -0.876886 -0.573114 1.361951 11.577772 5.154558 -3.218433 0.000000 0.000000 0.000000 0.000000 0.000000 0.000000 -0.000000 0.000000 0.000000 -0.000000 0.000000 0.000000 -0.426707 0.671144 -0.177176 -1.684056 -0.007180 0.091371 0.000000 0.000000 0.000000 0.000000 0.000000 0.000000 -1.031263 0.185669 -24.099111 0.931878 0.136305 0.179923 -0.411424 1.096478 0.127827 0.000000 0.000000 0.000000 1.389057 0.558023 -23.422547 -2.026964 -2.273137 -0.883168 2.180238 0.899468 -0.582908 0.000000 0.000000 0.000000
-41.232592 64.619665 349.468496 0.091805 0.129049 23.934023 -0.136265 -0.080709 -23.934223 -0.000000 0.000000 0.000000 -0.000000 0.000000 0.000000 0.000000 0.000000 0.000000 -0.000000 0.000000 0.000000 -0.000000 0.000000 0.000000 -1.270418 -0.776621 1.728380 16.095712 6.809555 -4.339958 0.000000 0.000000 0.000000 0.000000 0.000000 0.000000 -0.000000 0.000000 0.000000 -0.000000 0.000000 0.000000 -0.587653 0.931746 -0.244872 -2.131553 0.095285 0.134855 0.000000 0.000000 0.000000 0.000000 0.000000 0.000000 -1.388339 0.298626 -24.181379 2.399331 0.138865 0.355215 -1.489486 1.101589 -0.016387 0.000000 0.000000 0.000000 1.915660 0.770584 -23.265650 -2.722752 -3.033697 -1.200672 2.871488 1.072797 -0.733307 0.000000 0.000000 0.000000
-41.255810 64.631239 349.463385 0.073414 0.114007 23.948782 -0.113371 -0.074392 -23.948929 -0.000000 0.000000 0.000000 -0.000000 0.000000 0.000000 0.000000 0.000000 0.000000 -0.000000 0.000000 0.000000 -0.000000 0.000000 0.000000 -1.640006 -0.923643 1.890749 19.949672 8.097864 -5.085910 0.000000 0.000000 0.000000 0.000000 0.000000 0.000000 -0.000000 0.000000 0.000000 -0.000000 0.000000 0.000000 -0.707313 1.131908 -0.296653 -2.325009 0.282085 0.178756 0.000000 0.000000 0.000000 0.000000 0.000000 0.000000 -1.639013 0.424248 -24.247504 3.029361 0.157061 0.447374 -1.433380 0.026148 -0.150325 0.000000 0.000000 0.000000 2.313087 0.929373 -23.163050 -3.197602 -3.548080 -1.421248 3.309284 1.075688 -0.775324 0.000000 0.000000 0.000000
-41.296212 64.637052 349.476618 0.030482 0.069880 23.963140 -0.056236 -0.051476 -23.963184 -0.000000 0.000000 0.000000 -0.000000 0.000000 0.000000 0.000000 0.000000 0.000000 -0.000000 0.000000 0.000000 -0.000000 0.000000 0.000000 -1.989038 -1.012845 1.849910 23.256125 9.149502 -5.452244 0.000000 0.000000 0.000000 0.000000 0.000000 0.000000 -0.000000 0.000000 0.000000 -0.000000 0.000000 0.000000 -0.782421 1.266021 -0.331524 -2.266813 0.561325 0.222832 0.000000 0.000000 0.000000 0.000000 0.000000 0.000000 -1.783145 0.562063 -24.297577 3.575122 0.160380 0.527488 -1.748759 0.007316 -0.192463 0.000000 0.000000 0.000000 2.574224 1.030338 -23.116103 -3.446287 -3.818030 -1.537928 3.498150 0.912764 -0.703357 0.000000 0.000000 0.000000
-41.348067 64.642575 349.503451 -0.028336 -0.002891 23.957047 0.027068 -0.008864 -23.957046 -0.000000 0.000000 0.000000 -0.000000 0.000000 0.000000 0.000000 0.000000 0.000000 0.593139 0.633729 0.065434 -0.593898 -0.633018 -0.071995 -1.237191 -0.764893 1.719364 30.522479 11.598596 -6.987392 0.000000 0.000000 0.000000 0.000000 0.000000 0.000000 -0.000000 0.000000 0.000000 -0.000000 0.000000 0.000000 -0.770829 1.282400 -0.337560 -1.842732 1.525009 0.276905 0.000000 0.000000 0.000000 0.000000 0.000000 0.000000 -1.882777 0.746336 -24.321175 4.152177 0.151562 0.615383 -1.053821 -2.611927 -0.862774 0.000000 0.000000 0.000000 2.410972 1.042480 -23.169269 -3.003571 -3.556228 -1.396082 3.691903 -0.126106 -0.685113 0.000000 0.000000 0.000000
-41.403454 64.649630 349.526373 -0.100253 -0.081255 23.995455 0.124632 0.033463 -23.995562 -0.000000 0.000000 0.000000 -0.000000 0.000000 0.000000 0.000000 0.000000 0.000000 0.615982 0.744916 0.067945 -0.616917 -0.744142 -0.075955 -1.908843 -0.895916 1.490000 32.855447 12.212720 -6.287734 0.000000 0.000000 0.000000 0.000000 0.000000 0.000000 -0.000000 0.000000 0.000000 -0.000000 0.000000 0.000000 -0.673683 1.202610 -0.321322 -0.951289 1.899858 0.302635 0.000000 0.000000 0.000000 0.000000 0.000000 0.000000 -1.906409 0.881433 -24.378711 4.629641 0.183174 0.695183 -0.674304 -4.551263 -1.225618 0.000000 0.000000 0.000000 1.738780 0.838935 -23.431328 -1.981489 -2.710291 -0.996976 2.402803 -0.365696 -0.136862 0.000000 0.000000 0.000000
-41.504595 64.634923 349.599695 -0.225525 -0.220293 23.990269 0.295610 0.109567 -23.990985 -0.000000 0.000000 0.000000 -0.000000 0.000000 0.000000 0.000000 0.000000 0.000000 0.859614 0.665615 0.092897 0.819109 3.060719 -1.230574 -4.201750 -4.662376 1.487095 31.071127 11.796859 -4.263679 0.000000 0.000000 0.000000 0.000000 0.000000 0.000000 -0.000000 0.000000 0.000000 -0.000000 0.000000 0.000000 -0.716284 0.758732 -0.180865 0.361131 2.780993 0.206378 0.000000 0.000000 0.000000 0.000000 0.000000 0.000000 -1.682623 1.033741 -24.357698 4.838399 0.145536 0.729579 -0.454672 -5.802528 -1.454823 0.000000 0.000000 0.000000 2.039988 0.958832 -23.390623 -1.923381 -2.785469 -1.007626 1.839952 -1.053792 0.436229 0.000000 0.000000 0.000000
-41.634641 64.596636 349.714930 -0.385258 -0.406673 23.963658 0.517226 0.215134 -23.965996 -0.000000 0.000000 0.000000 -0.000000 0.000000 0.000000 0.000000 0.000000 0.000000 0.762220 0.642533 0.082875 0.283683 1.625005 -0.560066 -4.643405 -2.750536 -1.582966 28.483771 11.394548 -0.273059 0.000000 0.000000 0.000000 0.000000 0.000000 0.000000 -0.000000 0.000000 0.000000 -0.000000 0.000000 0.000000 -0.717427 1.119370 -0.291931 0.884789 2.976145 0.337454 0.000000 0.000000 0.000000 0.000000 0.000000 0.000000 -1.323813 1.234889 -24.298126 4.979852 0.038845 0.745517 -0.535536 -6.275592 -1.514139 0.000000 0.000000 0.000000 2.649970 1.182518 -23.259697 -2.168722 -3.082021 -1.128199 1.351149 -1.717589 1.055859 0.000000 0.000000 0.000000
-41.793347 64.550972 349.845104 -0.569119 -0.598094 23.933399 0.762825 0.315760 -23.938471 -0.000000 0.000000 0.000000 -0.000000 0.000000 0.000000 0.000000 0.000000 0.000000 0.252931 0.779919 0.031004 -1.449462 -3.598461 0.809347 -7.075262 1.295459 -2.471788 22.312841 7.184545 3.899558 0.000000 0.000000 0.000000 0.000000 0.000000 0.000000 -0.000000 0.000000 0.000000 -0.000000 0.000000 0.000000 -0.897594 1.826700 -0.493355 1.071426 0.995400 0.548977 0.000000 0.000000 0.000000 0.000000 0.000000 0.000000 -1.126202 1.468528 -24.270904 5.331245 0.016777 0.812321 -0.952564 -5.972244 -1.449685 0.000000 0.000000 0.000000 2.547444 1.078467 -23.361059 -1.570220 -2.387704 -0.846710 0.267298 -2.187205 1.528781 0.000000 0.000000 0.000000
-42.078477 64.540503 350.008423 -0.905112 -0.796290 23.720833 1.148992 0.364811 -23.730781 -0.000000 0.000000 0.000000 -0.000000 0.000000 0.000000 0.000000 0.000000 0.000000 -0.479756 0.802745 -0.043404 -6.818667 -16.987460 1.482017 -11.842266 11.278734 0.712383 8.601159 -3.290928 6.470009 0.000000 0.000000 0.000000 0.000000 0.000000 0.000000 -0.000000 0.000000 0.000000 -0.000000 0.000000 0.000000 -2.115620 4.223833 -1.088151 1.925921 -3.016304 1.227135 0.000000 0.000000 0.000000 0.000000 0.000000 0.000000 -0.338892 1.541701 -23.982961 5.137789 -0.147525 0.770520 -1.571769 -4.826146 -1.255410 0.000000 0.000000 0.000000 2.974799 1.102068 -23.155364 -1.389273 -1.395288 -0.615709 -0.060694 -3.303341 1.434859 0.000000 0.000000 0.000000
-42.289728 64.463452 350.188612 -1.147113 -0.974679 23.551632 0.455062 0.170483 -23.585484 0.797796 0.636881 0.019399 -0.000000 0.000000 0.000000 0.000000 0.000000 0.000000 -2.353650 1.574840 -0.213128 -13.427789 -37.566008 2.588085 -23.811063 24.560811 8.758895 -7.591587 -16.618910 4.233597 0.000000 0.000000 0.000000 0.000000 0.000000 0.000000 -0.692958 0.447709 0.179585 0.691573 -0.449846 -0.174163 -2.106816 5.380559 -1.429316 0.620840 -5.929598 1.405378 0.000000 0.000000 0.000000 0.000000 0.000000 0.000000 0.813722 1.541403 -23.655678 4.036081 -0.468057 0.569848 -2.007657 -2.954958 -0.839296 0.000000 0.000000 0.000000 2.850194 1.172824 -23.074889 -0.069054 -1.456954 -0.406735 -0.762503 -2.828776 1.054960 0.000000 0.000000 0.000000
-42.312693 64.339277 350.309357 -1.158322 -1.062307 23.586400 0.375140 0.227704 -23.623681 0.164277 0.226195 -0.022776 0.740788 0.478056 0.047220 0.000000 0.000000 0.000000 -5.037589 3.137736 -0.381442 -23.722990 -60.688054 -2.106765 -34.522209 34.524902 27.228889 -15.685009 -19.502854 -2.543216 0.000000 0.000000 0.000000 0.000000 0.000000 0.000000 -0.430312 2.074750 0.638490 -0.106447 -0.833073 -0.327082 -2.236061 5.659722 -1.831162 -0.675430 -6.376309 1.288393 0.000000 0.000000 0.000000 0.000000 0.000000 0.000000 1.980626 1.413820 -23.485088 2.030135 -0.834606 0.208314 -2.123330 -0.184141 -0.305044 0.000000 0.000000 0.000000 2.945204 1.415067 -23.056443 0.239994 -1.484086 -0.388444 -1.626057 -3.530508 1.637797 0.000000 0.000000 0.000000
